<?xml version="1.0" encoding="UTF-8" standalone="no"?>
<!DOCTYPE svg PUBLIC "-//W3C//DTD SVG 1.1//EN" "http://www.w3.org/Graphics/SVG/1.1/DTD/svg11.dtd">
<svg width="100%" height="100%" viewBox="0 0 3072 1024" version="1.1" xmlns="http://www.w3.org/2000/svg" xmlns:xlink="http://www.w3.org/1999/xlink" xml:space="preserve" xmlns:serif="http://www.serif.com/" style="fill-rule:evenodd;clip-rule:evenodd;stroke-linecap:round;stroke-linejoin:round;stroke-miterlimit:1.5;">
    <g transform="matrix(1,0,0,1,1055.55,-27.6493)">
        <path d="M480.447,251.121L768.976,828.178L191.919,828.178L480.447,251.121Z" style="fill:rgb(31,144,244);stroke:rgb(0,84,159);stroke-width:6px;"/>
    </g>
    <g transform="matrix(1.32372,0,0,1.32372,914.181,-890.44)">
        <circle cx="469.75" cy="841.499" r="17.891" style="fill:rgb(0,84,159);"/>
    </g>
    <g transform="matrix(1.32372,0,0,1.32372,625.652,-313.383)">
        <circle cx="469.75" cy="841.499" r="17.891" style="fill:rgb(0,84,159);"/>
    </g>
    <g transform="matrix(1.32372,0,0,1.32372,1202.71,-313.383)">
        <circle cx="469.75" cy="841.499" r="17.891" style="fill:rgb(0,84,159);"/>
    </g>
    <g transform="matrix(1,0,0,1,-352.79,21.7056)">
        <text x="1475.49px" y="867.455px" style="font-family:'ArialMT', 'Arial', sans-serif;font-size:72px;fill:rgb(0,84,159);">v0</text>
    </g>
    <g transform="matrix(1,0,0,1,22.4879,-692.622)">
        <text x="1475.49px" y="867.455px" style="font-family:'ArialMT', 'Arial', sans-serif;font-size:72px;fill:rgb(0,84,159);">v1</text>
    </g>
    <g transform="matrix(1,0,0,1,397.766,21.7056)">
        <text x="1475.49px" y="867.455px" style="font-family:'ArialMT', 'Arial', sans-serif;font-size:72px;fill:rgb(0,84,159);">v2</text>
    </g>
</svg>
