<?xml version="1.0" encoding="UTF-8" standalone="no"?>
<!DOCTYPE svg PUBLIC "-//W3C//DTD SVG 1.1//EN" "http://www.w3.org/Graphics/SVG/1.1/DTD/svg11.dtd">
<svg width="100%" height="100%" viewBox="0 0 3072 1024" version="1.1" xmlns="http://www.w3.org/2000/svg" xmlns:xlink="http://www.w3.org/1999/xlink" xml:space="preserve" xmlns:serif="http://www.serif.com/" style="fill-rule:evenodd;clip-rule:evenodd;stroke-linecap:round;stroke-linejoin:round;stroke-miterlimit:1.5;">
    <g transform="matrix(4.48294,0,0,4.48294,369.367,-930.771)">
        <g transform="matrix(0.998123,0,0,0.998123,0.32116,0.583706)">
            <rect x="171.1" y="310.973" width="100.188" height="100.188" style="fill:rgb(31,144,244);"/>
        </g>
        <g transform="matrix(0.35289,-0.35289,1.82658e-16,0.998123,210.721,60.9633)">
            <rect x="171.1" y="310.973" width="100.188" height="100.188" style="fill:rgb(9,110,200);"/>
        </g>
        <g transform="matrix(0.35289,-0.35289,0.998123,-1.9173e-16,-199.669,371.353)">
            <rect x="171.1" y="310.973" width="100.188" height="100.188" style="fill:rgb(65,161,246);"/>
        </g>
    </g>
    <g transform="matrix(1.9694,0,0,1.9694,483.607,-185.775)">
        <g transform="matrix(1,0,0,1,616.182,140.795)">
            <circle cx="66.254" cy="65.451" r="54.841" style="fill:rgb(31,144,244);stroke:white;stroke-width:0.83px;"/>
        </g>
        <g id="i" transform="matrix(0.866024,0,0,0.866024,627.01,150.82)">
            <g transform="matrix(1,0,0,0.92739,-1.06261,8.20576)">
                <path d="M74.561,49.699C74.561,48.456 73.625,47.446 72.471,47.446L57.654,47.446C56.501,47.446 55.564,48.456 55.564,49.699L55.564,103.992C55.564,105.235 56.501,106.245 57.654,106.245L72.471,106.245C73.625,106.245 74.561,105.235 74.561,103.992L74.561,49.699Z" style="fill:white;"/>
            </g>
            <g transform="matrix(1.09774,0,0,1.04511,-8.35052,-4.52532)">
                <circle cx="65.908" cy="33.329" r="8.653" style="fill:white;"/>
            </g>
        </g>
    </g>
</svg>
