<?xml version="1.0" encoding="UTF-8" standalone="no"?>
<!DOCTYPE svg PUBLIC "-//W3C//DTD SVG 1.1//EN" "http://www.w3.org/Graphics/SVG/1.1/DTD/svg11.dtd">
<svg width="100%" height="100%" viewBox="0 0 3072 1024" version="1.1" xmlns="http://www.w3.org/2000/svg" xmlns:xlink="http://www.w3.org/1999/xlink" xml:space="preserve" xmlns:serif="http://www.serif.com/" style="fill-rule:evenodd;clip-rule:evenodd;stroke-linecap:round;stroke-linejoin:round;stroke-miterlimit:1.5;">
    <g transform="matrix(5.38421,0,0,5.38421,250.368,-1336.38)">
        <g transform="matrix(0.998123,0,0,0.998123,0.32116,0.583706)">
            <rect x="171.1" y="310.973" width="100.188" height="100.188" style="fill:rgb(31,144,244);stroke:rgb(0,84,159);stroke-width:1.43px;"/>
        </g>
        <g transform="matrix(0.35289,-0.35289,1.82658e-16,0.998123,210.721,60.9633)">
            <rect x="171.1" y="310.973" width="100.188" height="100.188" style="fill:rgb(9,110,200);stroke:rgb(0,84,159);stroke-width:2.75px;"/>
        </g>
        <g transform="matrix(0.35289,-0.35289,0.998123,-1.9173e-16,-199.669,371.353)">
            <rect x="171.1" y="310.973" width="100.188" height="100.188" style="fill:rgb(65,161,246);stroke:rgb(0,84,159);stroke-width:1.44px;"/>
        </g>
    </g>
    <g transform="matrix(1,0,0,1,1024,0)">
        <path d="M147.609,337.97L686.03,876.391L876.391,147.609L147.609,337.97Z" style="fill:none;stroke:rgb(0,84,159);stroke-width:7.7px;"/>
    </g>
    <g transform="matrix(1,0,0,1,1084.24,152.361)">
        <circle cx="87.372" cy="185.608" r="21.339" style="fill:rgb(0,84,159);"/>
    </g>
    <g transform="matrix(1,0,0,1,1084.24,690.783)">
        <circle cx="87.372" cy="185.608" r="21.339" style="fill:rgb(0,84,159);"/>
    </g>
    <g transform="matrix(1,0,0,1,1622.66,152.361)">
        <circle cx="87.372" cy="185.608" r="21.339" style="fill:rgb(0,84,159);"/>
    </g>
    <g transform="matrix(1,0,0,1,1622.66,690.783)">
        <circle cx="87.372" cy="185.608" r="21.339" style="fill:rgb(0,84,159);"/>
    </g>
    <g transform="matrix(1,0,0,1,1813.02,-37.9992)">
        <circle cx="87.372" cy="185.608" r="21.339" style="fill:rgb(0,84,159);"/>
    </g>
    <g transform="matrix(1,0,0,1,1813.02,499.179)">
        <circle cx="87.372" cy="185.608" r="21.339" style="fill:rgb(0,84,159);"/>
    </g>
    <g transform="matrix(1,0,0,1,1273.77,-37.9992)">
        <circle cx="87.372" cy="185.608" r="21.339" style="fill:rgb(0,84,159);"/>
    </g>
</svg>
