<?xml version="1.0" encoding="UTF-8" standalone="no"?><!DOCTYPE svg PUBLIC "-//W3C//DTD SVG 1.1//EN" "http://www.w3.org/Graphics/SVG/1.1/DTD/svg11.dtd"><svg width="100%" height="100%" viewBox="0 0 3072 1024" version="1.1" xmlns="http://www.w3.org/2000/svg" xmlns:xlink="http://www.w3.org/1999/xlink" xml:space="preserve" xmlns:serif="http://www.serif.com/" style="fill-rule:evenodd;clip-rule:evenodd;stroke-linejoin:round;stroke-miterlimit:1.41421;"><g><ellipse cx="1536" cy="343.576" rx="306.955" ry="207.794" style="fill:#096ec8;"/><path d="M1842.95,511.997c0,114.691 -137.54,207.799 -306.948,207.799c-169.408,0 -306.948,-93.108 -306.948,-207.799l0,-129.049c0,114.691 137.54,207.799 306.948,207.799c169.408,0 306.948,-93.108 306.948,-207.799l0,129.049Z" style="fill:#41a1f6;"/><path d="M1842.95,680.419c0,114.691 -137.54,207.799 -306.948,207.799c-169.408,0 -306.948,-93.108 -306.948,-207.799l0,-129.049c0,114.691 137.54,207.799 306.948,207.799c169.408,0 306.948,-93.108 306.948,-207.799l0,129.049Z" style="fill:#41a1f6;"/><rect x="0" y="-0.004" width="3070.59" height="1023.14" style="fill:none;"/></g></svg>