<?xml version="1.0" encoding="UTF-8" standalone="no"?><!DOCTYPE svg PUBLIC "-//W3C//DTD SVG 1.1//EN" "http://www.w3.org/Graphics/SVG/1.1/DTD/svg11.dtd"><svg width="100%" height="100%" viewBox="0 0 1316 659" version="1.1" xmlns="http://www.w3.org/2000/svg" xmlns:xlink="http://www.w3.org/1999/xlink" xml:space="preserve" xmlns:serif="http://www.serif.com/" style="fill-rule:evenodd;clip-rule:evenodd;stroke-linejoin:round;stroke-miterlimit:1.41421;"><g><ellipse cx="658" cy="221.11" rx="171.725" ry="133.727" style="fill:#096ec8;"/><path d="M829.721,329.498c0,73.81 -76.946,133.73 -171.721,133.73c-94.775,0 -171.721,-59.92 -171.721,-133.73l0,-83.05c0,73.81 76.946,133.73 171.721,133.73c94.775,0 171.721,-59.92 171.721,-133.73l0,83.05Z" style="fill:#41a1f6;"/><path d="M829.721,437.887c0,73.81 -76.946,133.73 -171.721,133.73c-94.775,0 -171.721,-59.92 -171.721,-133.73l0,-83.05c0,73.81 76.946,133.73 171.721,133.73c94.775,0 171.721,-59.92 171.721,-133.73l0,83.05Z" style="fill:#41a1f6;"/><rect x="0" y="-0.003" width="1315.39" height="658.449" style="fill:none;"/></g></svg>