<?xml version="1.0" encoding="UTF-8" standalone="no"?>
<!DOCTYPE svg PUBLIC "-//W3C//DTD SVG 1.1//EN" "http://www.w3.org/Graphics/SVG/1.1/DTD/svg11.dtd">
<svg width="100%" height="100%" viewBox="0 0 3072 1024" version="1.1" xmlns="http://www.w3.org/2000/svg" xmlns:xlink="http://www.w3.org/1999/xlink" xml:space="preserve" xmlns:serif="http://www.serif.com/" style="fill-rule:evenodd;clip-rule:evenodd;stroke-linejoin:round;stroke-miterlimit:2;">
    <g transform="matrix(4.39479,0,0,4.39479,303.484,-996.714)">
        <g transform="matrix(0.998123,0,0,0.998123,0.32116,0.583706)">
            <rect x="171.1" y="310.973" width="100.188" height="100.188" style="fill:rgb(31,144,244);"/>
        </g>
        <g transform="matrix(0.35289,-0.35289,1.82658e-16,0.998123,210.721,60.9633)">
            <rect x="171.1" y="310.973" width="100.188" height="100.188" style="fill:rgb(9,110,200);"/>
        </g>
        <g transform="matrix(0.35289,-0.35289,0.998123,-1.9173e-16,-199.669,371.353)">
            <rect x="171.1" y="310.973" width="100.188" height="100.188" style="fill:rgb(65,161,246);"/>
        </g>
    </g>
    <g id="Chain" transform="matrix(1,0,0,1,1040.53,13.8422)">
        <g transform="matrix(0.594004,0.342948,-0.342948,0.594004,174.427,209.693)">
            <path d="M954.389,121.657C954.389,82.519 922.614,50.745 883.476,50.745L737.748,50.745C698.611,50.745 666.836,82.519 666.836,121.657C666.836,160.795 698.611,192.569 737.748,192.569L883.476,192.569C922.614,192.569 954.389,160.795 954.389,121.657ZM929.804,121.657C929.804,147.226 909.045,167.984 883.476,167.984L737.748,167.984C712.18,167.984 691.421,147.226 691.421,121.657C691.421,96.088 712.18,75.33 737.748,75.33C737.748,75.33 883.476,75.33 883.476,75.33C909.045,75.33 929.804,96.088 929.804,121.657Z" style="fill:rgb(31,144,244);"/>
        </g>
        <g transform="matrix(0.594004,0.342948,-0.342948,0.594004,432.51,360.116)">
            <path d="M954.389,121.657C954.389,82.519 922.614,50.745 883.476,50.745L737.748,50.745C698.611,50.745 666.836,82.519 666.836,121.657C666.836,160.795 698.611,192.569 737.748,192.569L883.476,192.569C922.614,192.569 954.389,160.795 954.389,121.657ZM929.804,121.657C929.804,147.226 909.045,167.984 883.476,167.984C883.476,167.984 737.748,167.984 737.748,167.984C712.18,167.984 691.421,147.226 691.421,121.657C691.421,96.088 712.18,75.33 737.748,75.33L883.476,75.33C909.045,75.33 929.804,96.088 929.804,121.657Z" style="fill:rgb(31,144,244);"/>
        </g>
        <g transform="matrix(0.594004,0.342948,-0.166202,0.287871,280.344,321.92)">
            <path d="M954.389,121.657C954.389,82.519 938.99,50.745 920.023,50.745L701.202,50.745C682.235,50.745 666.836,82.519 666.836,121.657C666.836,160.795 682.235,192.569 701.202,192.569L920.023,192.569C938.99,192.569 954.389,160.795 954.389,121.657ZM929.804,121.657C929.804,132.796 925.421,141.84 920.023,141.84C920.023,141.84 701.202,141.84 701.202,141.84C695.804,141.84 691.421,132.796 691.421,121.657C691.421,110.518 695.804,101.474 701.202,101.474L920.023,101.474C925.421,101.474 929.804,110.518 929.804,121.657Z" style="fill:rgb(39,90,173);"/>
        </g>
        <g transform="matrix(0.748899,1.11022e-16,-5.55112e-17,0.332404,-129.927,477.122)">
            <clipPath id="_clip1">
                <rect x="836.846" y="50.745" width="117.543" height="141.825"/>
            </clipPath>
            <g clip-path="url(#_clip1)">
                <path d="M954.389,121.657C954.389,82.519 940.285,50.745 922.914,50.745L698.311,50.745C680.94,50.745 666.836,82.519 666.836,121.657C666.836,160.795 680.94,192.569 698.311,192.569L922.914,192.569C940.285,192.569 954.389,160.795 954.389,121.657ZM931.872,121.657C931.872,132.796 927.858,141.84 922.914,141.84L698.311,141.84C693.367,141.84 689.353,132.796 689.353,121.657C689.353,110.518 693.367,101.474 698.311,101.474C698.311,101.474 922.914,101.474 922.914,101.474C927.858,101.474 931.872,110.518 931.872,121.657Z" style="fill:rgb(220,225,222);"/>
            </g>
        </g>
        <g transform="matrix(0.904811,0,-1.66533e-16,0.867349,-94.144,122.873)">
            <rect x="653.07" y="427.874" width="21.907" height="54.301" style="fill:white;"/>
            <rect x="653.07" y="427.874" width="21.907" height="54.301" style="fill:rgb(220,225,222);"/>
        </g>
        <g transform="matrix(0.594004,0.342948,-0.342948,0.594004,174.427,209.693)">
            <clipPath id="_clip2">
                <rect x="666.836" y="123.933" width="287.553" height="68.636"/>
            </clipPath>
            <g clip-path="url(#_clip2)">
                <path d="M954.389,121.657C954.389,82.519 922.614,50.745 883.476,50.745L737.748,50.745C698.611,50.745 666.836,82.519 666.836,121.657C666.836,160.795 698.611,192.569 737.748,192.569L883.476,192.569C922.614,192.569 954.389,160.795 954.389,121.657ZM929.804,121.657C929.804,147.226 909.045,167.984 883.476,167.984L737.748,167.984C712.18,167.984 691.421,147.226 691.421,121.657C691.421,96.088 712.18,75.33 737.748,75.33C737.748,75.33 883.476,75.33 883.476,75.33C909.045,75.33 929.804,96.088 929.804,121.657Z" style="fill:rgb(31,144,244);"/>
            </g>
        </g>
        <g transform="matrix(0.594004,0.342948,-0.342948,0.594004,432.51,360.116)">
            <clipPath id="_clip3">
                <rect x="666.836" y="121.657" width="287.553" height="70.912"/>
            </clipPath>
            <g clip-path="url(#_clip3)">
                <path d="M954.389,121.657C954.389,82.519 922.614,50.745 883.476,50.745L737.748,50.745C698.611,50.745 666.836,82.519 666.836,121.657C666.836,160.795 698.611,192.569 737.748,192.569L883.476,192.569C922.614,192.569 954.389,160.795 954.389,121.657ZM929.804,121.657C929.804,147.226 909.045,167.984 883.476,167.984C883.476,167.984 737.748,167.984 737.748,167.984C712.18,167.984 691.421,147.226 691.421,121.657C691.421,96.088 712.18,75.33 737.748,75.33L883.476,75.33C909.045,75.33 929.804,96.088 929.804,121.657Z" style="fill:rgb(31,144,244);"/>
            </g>
        </g>
    </g>
</svg>
