<?xml version="1.0" encoding="UTF-8" standalone="no"?>
<!DOCTYPE svg PUBLIC "-//W3C//DTD SVG 1.1//EN" "http://www.w3.org/Graphics/SVG/1.1/DTD/svg11.dtd">
<svg width="100%" height="100%" viewBox="0 0 3072 1024" version="1.1" xmlns="http://www.w3.org/2000/svg" xmlns:xlink="http://www.w3.org/1999/xlink" xml:space="preserve" xmlns:serif="http://www.serif.com/" style="fill-rule:evenodd;clip-rule:evenodd;stroke-linejoin:round;stroke-miterlimit:2;">
    <g transform="matrix(2.79927,0,0,2.79927,825.232,-157.345)">
        <g transform="matrix(0.998123,0,0,0.998123,0.32116,0.583706)">
            <rect x="171.1" y="310.973" width="100.188" height="100.188" style="fill:rgb(31,144,244);"/>
        </g>
        <g transform="matrix(0.35289,-0.35289,1.82658e-16,0.998123,210.721,60.9633)">
            <rect x="171.1" y="310.973" width="100.188" height="100.188" style="fill:rgb(9,110,200);"/>
        </g>
        <g transform="matrix(0.35289,-0.35289,0.998123,-1.9173e-16,-199.669,371.353)">
            <rect x="171.1" y="310.973" width="100.188" height="100.188" style="fill:rgb(65,161,246);"/>
        </g>
    </g>
    <g transform="matrix(1.60375,0,0,1.60375,636.887,-211.915)">
        <rect x="464.044" y="209.628" width="163.765" height="85.225" style="fill:rgb(31,144,244);"/>
        <g transform="matrix(0.924751,0,0,0.994456,43.0761,8.07563)">
            <ellipse cx="500.237" cy="189.391" rx="48.662" ry="45.251" style="fill:rgb(31,144,244);"/>
        </g>
        <g transform="matrix(0.924751,0,0,0.994456,106.291,24.9026)">
            <ellipse cx="500.237" cy="189.391" rx="48.662" ry="45.251" style="fill:rgb(31,144,244);"/>
        </g>
        <g transform="matrix(0.985499,0,0,1.05978,134.827,46.1842)">
            <ellipse cx="500.237" cy="189.391" rx="48.662" ry="45.251" style="fill:rgb(31,144,244);"/>
        </g>
        <g transform="matrix(0.985499,0,0,1.05978,-28.9387,46.1842)">
            <ellipse cx="500.237" cy="189.391" rx="48.662" ry="45.251" style="fill:rgb(31,144,244);"/>
        </g>
    </g>
    <g transform="matrix(3.43389e-17,0.560797,-1.17809,7.21373e-17,2021.44,444.865)">
        <path d="M-264.562,448.775L-264.562,415.379L138.323,415.379L138.323,384.368L238.547,432.077L138.323,479.786L138.323,448.775L-264.562,448.775Z" style="fill:rgb(31,144,244);"/>
    </g>
    <g transform="matrix(1.55201,0,0,1.55201,1038.64,-468.566)">
        <text x="200.515px" y="876.39px" style="font-family:'Ebrima';font-size:67px;fill:white;">.obj</text>
    </g>
</svg>
