<?xml version="1.0" encoding="UTF-8" standalone="no"?>
<!DOCTYPE svg PUBLIC "-//W3C//DTD SVG 1.1//EN" "http://www.w3.org/Graphics/SVG/1.1/DTD/svg11.dtd">
<svg width="100%" height="100%" viewBox="0 0 3072 1024" version="1.1" xmlns="http://www.w3.org/2000/svg" xmlns:xlink="http://www.w3.org/1999/xlink" xml:space="preserve" xmlns:serif="http://www.serif.com/" style="fill-rule:evenodd;clip-rule:evenodd;stroke-linejoin:round;stroke-miterlimit:2;">
    <g transform="matrix(1.40655,0,0,1.40655,828.341,-197.696)">
        <g transform="matrix(1,0,0,1,-25.8147,-19.2569)">
            <path d="M806.891,357.762C806.891,296.004 756.751,245.864 694.993,245.864L471.196,245.864C409.438,245.864 359.298,296.004 359.298,357.762L359.298,581.559C359.298,643.318 409.438,693.457 471.196,693.457L694.993,693.457C756.751,693.457 806.891,643.318 806.891,581.559L806.891,357.762Z" style="fill:rgb(65,161,246);"/>
            <clipPath id="_clip1">
                <path d="M806.891,357.762C806.891,296.004 756.751,245.864 694.993,245.864L471.196,245.864C409.438,245.864 359.298,296.004 359.298,357.762L359.298,581.559C359.298,643.318 409.438,693.457 471.196,693.457L694.993,693.457C756.751,693.457 806.891,643.318 806.891,581.559L806.891,357.762Z"/>
            </clipPath>
            <g clip-path="url(#_clip1)">
                <g transform="matrix(1.3692e-16,-2.23607,1,6.12323e-17,250.789,2501.73)">
                    <path d="M1008.85,556.102L820.447,556.102L867.548,332.306L908.768,332.306L1008.85,556.102Z" style="fill:rgb(9,110,200);"/>
                </g>
            </g>
        </g>
        <g transform="matrix(0.874099,-0.874099,0.707107,0.707107,-1.83787,293.451)">
            <rect x="103.285" y="236.392" width="133.237" height="86.604" style="fill:rgb(65,161,246);"/>
        </g>
        <g transform="matrix(0.872701,-0.872701,0.707107,0.707107,319.898,612.665)">
            <rect x="103.285" y="236.392" width="133.237" height="86.604" style="fill:rgb(9,110,200);"/>
        </g>
        <g transform="matrix(1,0,0,1,-134.139,89.0672)">
            <path d="M806.891,357.762C806.891,296.004 756.751,245.864 694.993,245.864L471.196,245.864C409.438,245.864 359.298,296.004 359.298,357.762L359.298,581.559C359.298,643.318 409.438,693.457 471.196,693.457L694.993,693.457C756.751,693.457 806.891,643.318 806.891,581.559L806.891,357.762Z" style="fill:rgb(31,144,244);"/>
        </g>
    </g>
</svg>
