<?xml version="1.0" encoding="UTF-8" standalone="no"?>
<!DOCTYPE svg PUBLIC "-//W3C//DTD SVG 1.1//EN" "http://www.w3.org/Graphics/SVG/1.1/DTD/svg11.dtd">
<svg width="100%" height="100%" viewBox="0 0 1024 1024" version="1.1" xmlns="http://www.w3.org/2000/svg" xmlns:xlink="http://www.w3.org/1999/xlink" xml:space="preserve" xmlns:serif="http://www.serif.com/" style="fill-rule:evenodd;clip-rule:evenodd;stroke-linecap:round;stroke-linejoin:round;stroke-miterlimit:1.5;">
    <g transform="matrix(0.89384,0,0,0.89384,68.4297,624.435)">
        <g transform="matrix(0.998123,0,0,0.998123,0.32116,0.583706)">
            <rect x="171.1" y="310.973" width="100.188" height="100.188" style="fill:rgb(31,144,244);"/>
        </g>
        <g transform="matrix(0.35289,-0.35289,1.82658e-16,0.998123,210.721,60.9633)">
            <rect x="171.1" y="310.973" width="100.188" height="100.188" style="fill:rgb(9,110,200);"/>
        </g>
        <g transform="matrix(0.35289,-0.35289,0.998123,-1.9173e-16,-199.669,371.353)">
            <rect x="171.1" y="310.973" width="100.188" height="100.188" style="fill:rgb(65,161,246);"/>
        </g>
    </g>
    <g transform="matrix(0.89384,0,0,0.89384,144.296,464.071)">
        <g transform="matrix(0.998123,0,0,0.998123,0.32116,0.583706)">
            <rect x="171.1" y="310.973" width="100.188" height="100.188" style="fill:rgb(31,144,244);"/>
        </g>
        <g transform="matrix(0.35289,-0.35289,1.82658e-16,0.998123,210.721,60.9633)">
            <rect x="171.1" y="310.973" width="100.188" height="100.188" style="fill:rgb(9,110,200);"/>
        </g>
        <g transform="matrix(0.35289,-0.35289,0.998123,-1.9173e-16,-199.669,371.353)">
            <rect x="171.1" y="310.973" width="100.188" height="100.188" style="fill:rgb(65,161,246);"/>
        </g>
    </g>
    <g transform="matrix(0.89384,0,0,0.89384,221.433,303.706)">
        <g transform="matrix(0.998123,0,0,0.998123,0.32116,0.583706)">
            <rect x="171.1" y="310.973" width="100.188" height="100.188" style="fill:rgb(31,144,244);"/>
        </g>
        <g transform="matrix(0.35289,-0.35289,1.82658e-16,0.998123,210.721,60.9633)">
            <rect x="171.1" y="310.973" width="100.188" height="100.188" style="fill:rgb(9,110,200);"/>
        </g>
        <g transform="matrix(0.35289,-0.35289,0.998123,-1.9173e-16,-199.669,371.353)">
            <rect x="171.1" y="310.973" width="100.188" height="100.188" style="fill:rgb(65,161,246);"/>
        </g>
    </g>
    <g transform="matrix(0.89384,0,0,0.89384,298.571,143.342)">
        <g transform="matrix(0.998123,0,0,0.998123,0.32116,0.583706)">
            <rect x="171.1" y="310.973" width="100.188" height="100.188" style="fill:rgb(31,144,244);"/>
        </g>
        <g transform="matrix(0.35289,-0.35289,1.82658e-16,0.998123,210.721,60.9633)">
            <rect x="171.1" y="310.973" width="100.188" height="100.188" style="fill:rgb(9,110,200);"/>
        </g>
        <g transform="matrix(0.35289,-0.35289,0.998123,-1.9173e-16,-199.669,371.353)">
            <rect x="171.1" y="310.973" width="100.188" height="100.188" style="fill:rgb(65,161,246);"/>
        </g>
    </g>
    <g transform="matrix(0.89384,0,0,0.89384,222.704,624.435)">
        <g transform="matrix(0.998123,0,0,0.998123,0.32116,0.583706)">
            <rect x="171.1" y="310.973" width="100.188" height="100.188" style="fill:rgb(31,144,244);"/>
        </g>
        <g transform="matrix(0.35289,-0.35289,1.82658e-16,0.998123,210.721,60.9633)">
            <rect x="171.1" y="310.973" width="100.188" height="100.188" style="fill:rgb(9,110,200);"/>
        </g>
        <g transform="matrix(0.35289,-0.35289,0.998123,-1.9173e-16,-199.669,371.353)">
            <rect x="171.1" y="310.973" width="100.188" height="100.188" style="fill:rgb(65,161,246);"/>
        </g>
    </g>
    <g transform="matrix(0.89384,0,0,0.89384,298.571,464.071)">
        <g transform="matrix(0.998123,0,0,0.998123,0.32116,0.583706)">
            <rect x="171.1" y="310.973" width="100.188" height="100.188" style="fill:rgb(31,144,244);"/>
        </g>
        <g transform="matrix(0.35289,-0.35289,1.82658e-16,0.998123,210.721,60.9633)">
            <rect x="171.1" y="310.973" width="100.188" height="100.188" style="fill:rgb(9,110,200);"/>
        </g>
        <g transform="matrix(0.35289,-0.35289,0.998123,-1.9173e-16,-199.669,371.353)">
            <rect x="171.1" y="310.973" width="100.188" height="100.188" style="fill:rgb(65,161,246);"/>
        </g>
    </g>
    <g transform="matrix(0.89384,0,0,0.89384,375.708,303.706)">
        <g transform="matrix(0.998123,0,0,0.998123,0.32116,0.583706)">
            <rect x="171.1" y="310.973" width="100.188" height="100.188" style="fill:rgb(31,144,244);"/>
        </g>
        <g transform="matrix(0.35289,-0.35289,1.82658e-16,0.998123,210.721,60.9633)">
            <rect x="171.1" y="310.973" width="100.188" height="100.188" style="fill:rgb(9,110,200);"/>
        </g>
        <g transform="matrix(0.35289,-0.35289,0.998123,-1.9173e-16,-199.669,371.353)">
            <rect x="171.1" y="310.973" width="100.188" height="100.188" style="fill:rgb(65,161,246);"/>
        </g>
    </g>
    <g transform="matrix(0.89384,0,0,0.89384,376.978,624.435)">
        <g transform="matrix(0.998123,0,0,0.998123,0.32116,0.583706)">
            <rect x="171.1" y="310.973" width="100.188" height="100.188" style="fill:rgb(31,144,244);"/>
        </g>
        <g transform="matrix(0.35289,-0.35289,1.82658e-16,0.998123,210.721,60.9633)">
            <rect x="171.1" y="310.973" width="100.188" height="100.188" style="fill:rgb(9,110,200);"/>
        </g>
        <g transform="matrix(0.35289,-0.35289,0.998123,-1.9173e-16,-199.669,371.353)">
            <rect x="171.1" y="310.973" width="100.188" height="100.188" style="fill:rgb(65,161,246);"/>
        </g>
    </g>
    <g transform="matrix(0.89384,0,0,0.89384,452.845,464.071)">
        <g transform="matrix(0.998123,0,0,0.998123,0.32116,0.583706)">
            <rect x="171.1" y="310.973" width="100.188" height="100.188" style="fill:rgb(31,144,244);"/>
        </g>
        <g transform="matrix(0.35289,-0.35289,1.82658e-16,0.998123,210.721,60.9633)">
            <rect x="171.1" y="310.973" width="100.188" height="100.188" style="fill:rgb(9,110,200);"/>
        </g>
        <g transform="matrix(0.35289,-0.35289,0.998123,-1.9173e-16,-199.669,371.353)">
            <rect x="171.1" y="310.973" width="100.188" height="100.188" style="fill:rgb(65,161,246);"/>
        </g>
    </g>
    <g transform="matrix(0.89384,0,0,0.89384,531.253,624.435)">
        <g transform="matrix(0.998123,0,0,0.998123,0.32116,0.583706)">
            <rect x="171.1" y="310.973" width="100.188" height="100.188" style="fill:rgb(31,144,244);"/>
        </g>
        <g transform="matrix(0.35289,-0.35289,1.82658e-16,0.998123,210.721,60.9633)">
            <rect x="171.1" y="310.973" width="100.188" height="100.188" style="fill:rgb(9,110,200);"/>
        </g>
        <g transform="matrix(0.35289,-0.35289,0.998123,-1.9173e-16,-199.669,371.353)">
            <rect x="171.1" y="310.973" width="100.188" height="100.188" style="fill:rgb(65,161,246);"/>
        </g>
    </g>
    <g transform="matrix(1.9257,0,0,1.9257,-539.289,-274.975)">
        <rect x="464.044" y="209.628" width="163.765" height="85.225" style="fill:rgb(31,144,244);"/>
        <g transform="matrix(0.924751,0,0,0.994456,43.0761,8.07563)">
            <ellipse cx="500.237" cy="189.391" rx="48.662" ry="45.251" style="fill:rgb(31,144,244);"/>
        </g>
        <g transform="matrix(0.924751,0,0,0.994456,106.291,24.9026)">
            <ellipse cx="500.237" cy="189.391" rx="48.662" ry="45.251" style="fill:rgb(31,144,244);"/>
        </g>
        <g transform="matrix(0.985499,0,0,1.05978,134.827,46.1842)">
            <ellipse cx="500.237" cy="189.391" rx="48.662" ry="45.251" style="fill:rgb(31,144,244);"/>
        </g>
        <g transform="matrix(0.985499,0,0,1.05978,-28.9387,46.1842)">
            <ellipse cx="500.237" cy="189.391" rx="48.662" ry="45.251" style="fill:rgb(31,144,244);"/>
        </g>
    </g>
    <g transform="matrix(-0.937379,-0.277325,-0.34831,0.746343,1292.55,295.469)">
        <path d="M328.539,305.834L83.924,964.147" style="fill:none;stroke:rgb(31,144,244);stroke-width:23.37px;"/>
    </g>
    <g transform="matrix(-0.937379,-0.277325,-0.34831,0.746343,560.431,295.469)">
        <path d="M328.539,305.834L83.924,964.147" style="fill:none;stroke:rgb(31,144,244);stroke-width:23.37px;"/>
    </g>
    <g transform="matrix(1.45113,0,0,1.79652,-377.072,-365.654)">
        <path d="M864.935,357.814L908.198,444.341L821.672,444.341L864.935,357.814Z" style="fill:rgb(31,144,244);"/>
    </g>
    <g transform="matrix(1.45113,0,0,1.79652,-1109.19,-365.654)">
        <path d="M864.935,357.814L908.198,444.341L821.672,444.341L864.935,357.814Z" style="fill:rgb(31,144,244);"/>
    </g>
    <g transform="matrix(1,0,0,1,320.453,45.6704)">
        <text x="73.942px" y="174.456px" style="font-family:'Ebrima';font-size:103.985px;fill:white;">xAPI</text>
    </g>
</svg>
