<?xml version="1.0" encoding="UTF-8" standalone="no"?>
<!DOCTYPE svg PUBLIC "-//W3C//DTD SVG 1.1//EN" "http://www.w3.org/Graphics/SVG/1.1/DTD/svg11.dtd">
<svg width="100%" height="100%" viewBox="0 0 2048 1024" version="1.1" xmlns="http://www.w3.org/2000/svg" xmlns:xlink="http://www.w3.org/1999/xlink" xml:space="preserve" xmlns:serif="http://www.serif.com/" style="fill-rule:evenodd;clip-rule:evenodd;stroke-linejoin:round;stroke-miterlimit:2;">
    <g transform="matrix(1.40041,0,0,1.40041,414.878,335.702)">
        <g transform="matrix(0.998123,0,0,0.998123,0.32116,0.583706)">
            <rect x="171.1" y="310.973" width="100.188" height="100.188" style="fill:rgb(31,144,244);"/>
        </g>
        <g transform="matrix(0.35289,-0.35289,1.82658e-16,0.998123,210.721,60.9633)">
            <rect x="171.1" y="310.973" width="100.188" height="100.188" style="fill:rgb(9,110,200);"/>
        </g>
        <g transform="matrix(0.35289,-0.35289,0.998123,-1.9173e-16,-199.669,371.353)">
            <rect x="171.1" y="310.973" width="100.188" height="100.188" style="fill:rgb(65,161,246);"/>
        </g>
    </g>
    <g transform="matrix(1.40041,0,0,1.40041,414.878,188.659)">
        <g transform="matrix(0.998123,0,0,0.998123,0.32116,0.583706)">
            <rect x="171.1" y="310.973" width="100.188" height="100.188" style="fill:rgb(31,144,244);"/>
        </g>
        <g transform="matrix(0.35289,-0.35289,1.82658e-16,0.998123,210.721,60.9633)">
            <rect x="171.1" y="310.973" width="100.188" height="100.188" style="fill:rgb(9,110,200);"/>
        </g>
        <g transform="matrix(0.35289,-0.35289,0.998123,-1.9173e-16,-199.669,371.353)">
            <rect x="171.1" y="310.973" width="100.188" height="100.188" style="fill:rgb(65,161,246);"/>
        </g>
    </g>
    <g transform="matrix(1.40041,0,0,1.40041,414.878,41.6166)">
        <g transform="matrix(0.998123,0,0,0.998123,0.32116,0.583706)">
            <rect x="171.1" y="310.973" width="100.188" height="100.188" style="fill:rgb(31,144,244);"/>
        </g>
        <g transform="matrix(0.35289,-0.35289,1.82658e-16,0.998123,210.721,60.9633)">
            <rect x="171.1" y="310.973" width="100.188" height="100.188" style="fill:rgb(9,110,200);"/>
        </g>
        <g transform="matrix(0.35289,-0.35289,0.998123,-1.9173e-16,-199.669,371.353)">
            <rect x="171.1" y="310.973" width="100.188" height="100.188" style="fill:rgb(65,161,246);"/>
        </g>
    </g>
    <g transform="matrix(1.40041,0,0,1.40041,561.92,335.702)">
        <g transform="matrix(0.998123,0,0,0.998123,0.32116,0.583706)">
            <rect x="171.1" y="310.973" width="100.188" height="100.188" style="fill:rgb(31,144,244);"/>
        </g>
        <g transform="matrix(0.35289,-0.35289,1.82658e-16,0.998123,210.721,60.9633)">
            <rect x="171.1" y="310.973" width="100.188" height="100.188" style="fill:rgb(9,110,200);"/>
        </g>
        <g transform="matrix(0.35289,-0.35289,0.998123,-1.9173e-16,-199.669,371.353)">
            <rect x="171.1" y="310.973" width="100.188" height="100.188" style="fill:rgb(65,161,246);"/>
        </g>
    </g>
    <g transform="matrix(1.40041,0,0,1.40041,561.92,188.659)">
        <g transform="matrix(0.998123,0,0,0.998123,0.32116,0.583706)">
            <rect x="171.1" y="310.973" width="100.188" height="100.188" style="fill:rgb(31,144,244);"/>
        </g>
        <g transform="matrix(0.35289,-0.35289,1.82658e-16,0.998123,210.721,60.9633)">
            <rect x="171.1" y="310.973" width="100.188" height="100.188" style="fill:rgb(9,110,200);"/>
        </g>
        <g transform="matrix(0.35289,-0.35289,0.998123,-1.9173e-16,-199.669,371.353)">
            <rect x="171.1" y="310.973" width="100.188" height="100.188" style="fill:rgb(65,161,246);"/>
        </g>
    </g>
    <g transform="matrix(1.40041,0,0,1.40041,765.467,-0.893299)">
        <g transform="matrix(0.998123,0,0,0.998123,0.32116,0.583706)">
            <rect x="171.1" y="310.973" width="100.188" height="100.188" style="fill:rgb(31,144,244);"/>
        </g>
        <g transform="matrix(0.35289,-0.35289,1.82658e-16,0.998123,210.721,60.9633)">
            <rect x="171.1" y="310.973" width="100.188" height="100.188" style="fill:rgb(9,110,200);"/>
        </g>
        <g transform="matrix(0.35289,-0.35289,0.998123,-1.9173e-16,-199.669,371.353)">
            <rect x="171.1" y="310.973" width="100.188" height="100.188" style="fill:rgb(65,161,246);"/>
        </g>
    </g>
    <g transform="matrix(1.40041,0,0,1.40041,964.349,-208.536)">
        <g transform="matrix(0.998123,0,0,0.998123,0.32116,0.583706)">
            <rect x="171.1" y="310.973" width="100.188" height="100.188" style="fill:rgb(31,144,244);"/>
        </g>
        <g transform="matrix(0.35289,-0.35289,1.82658e-16,0.998123,210.721,60.9633)">
            <rect x="171.1" y="310.973" width="100.188" height="100.188" style="fill:rgb(9,110,200);"/>
        </g>
        <g transform="matrix(0.35289,-0.35289,0.998123,-1.9173e-16,-199.669,371.353)">
            <rect x="171.1" y="310.973" width="100.188" height="100.188" style="fill:rgb(65,161,246);"/>
        </g>
    </g>
    <g transform="matrix(1.40041,0,0,1.40041,709.725,335.702)">
        <g transform="matrix(0.998123,0,0,0.998123,0.32116,0.583706)">
            <rect x="171.1" y="310.973" width="100.188" height="100.188" style="fill:rgb(31,144,244);"/>
        </g>
        <g transform="matrix(0.35289,-0.35289,1.82658e-16,0.998123,210.721,60.9633)">
            <rect x="171.1" y="310.973" width="100.188" height="100.188" style="fill:rgb(9,110,200);"/>
        </g>
        <g transform="matrix(0.35289,-0.35289,0.998123,-1.9173e-16,-199.669,371.353)">
            <rect x="171.1" y="310.973" width="100.188" height="100.188" style="fill:rgb(65,161,246);"/>
        </g>
    </g>
    <g transform="matrix(1.55201,0,0,1.55201,388.938,-1080.56)">
        <g transform="matrix(67,0,0,67,171.1,819.872)">
            <path d="M0.122,-0.627C0.108,-0.627 0.096,-0.632 0.085,-0.642C0.075,-0.651 0.07,-0.664 0.07,-0.679C0.07,-0.694 0.075,-0.706 0.085,-0.716C0.096,-0.726 0.108,-0.731 0.122,-0.731C0.137,-0.731 0.149,-0.726 0.159,-0.716C0.17,-0.706 0.175,-0.694 0.175,-0.679C0.175,-0.664 0.17,-0.652 0.159,-0.642C0.149,-0.632 0.137,-0.627 0.122,-0.627ZM0.161,0L0.081,0L0.081,-0.5L0.161,-0.5L0.161,0Z" style="fill:rgb(31,144,244);fill-rule:nonzero;"/>
        </g>
        <g transform="matrix(67,0,0,67,187.327,819.872)">
            <path d="M0.473,-0.214C0.473,-0.18 0.467,-0.149 0.456,-0.121C0.444,-0.093 0.427,-0.07 0.406,-0.05C0.384,-0.03 0.358,-0.015 0.327,-0.004C0.297,0.007 0.263,0.012 0.225,0.012C0.16,0.012 0.112,0.002 0.08,-0.017L0.08,-0.102C0.128,-0.071 0.176,-0.056 0.226,-0.056C0.251,-0.056 0.274,-0.06 0.295,-0.067C0.315,-0.075 0.332,-0.085 0.347,-0.099C0.361,-0.112 0.372,-0.128 0.38,-0.147C0.387,-0.166 0.391,-0.187 0.391,-0.209C0.391,-0.255 0.376,-0.29 0.345,-0.316C0.315,-0.342 0.27,-0.355 0.212,-0.355C0.202,-0.355 0.193,-0.355 0.182,-0.354C0.172,-0.354 0.161,-0.354 0.151,-0.353C0.14,-0.353 0.13,-0.352 0.12,-0.352C0.11,-0.351 0.101,-0.35 0.093,-0.349L0.117,-0.7L0.441,-0.7L0.441,-0.628L0.187,-0.628L0.172,-0.422C0.183,-0.423 0.194,-0.424 0.206,-0.424C0.217,-0.425 0.228,-0.425 0.237,-0.425C0.274,-0.425 0.307,-0.42 0.336,-0.41C0.366,-0.4 0.391,-0.386 0.411,-0.368C0.431,-0.35 0.447,-0.328 0.457,-0.302C0.468,-0.276 0.473,-0.246 0.473,-0.214Z" style="fill:rgb(31,144,244);fill-rule:nonzero;"/>
        </g>
        <g transform="matrix(67,0,0,67,241.797,819.872)">
            <path d="M0.506,-0.626L0.304,-0.626L0.304,0L0.222,0L0.222,-0.626L0.02,-0.626L0.02,-0.7L0.506,-0.7L0.506,-0.626Z" style="fill:rgb(31,144,244);fill-rule:nonzero;"/>
        </g>
        <g transform="matrix(67,0,0,67,276.9,819.872)">
            <path d="M0.29,0.012C0.216,0.012 0.157,-0.012 0.113,-0.058C0.069,-0.105 0.047,-0.167 0.047,-0.244C0.047,-0.328 0.07,-0.394 0.116,-0.441C0.162,-0.488 0.224,-0.512 0.302,-0.512C0.376,-0.512 0.434,-0.489 0.476,-0.443C0.518,-0.397 0.539,-0.333 0.539,-0.252C0.539,-0.172 0.517,-0.108 0.471,-0.06C0.426,-0.012 0.366,0.012 0.29,0.012ZM0.296,-0.444C0.244,-0.444 0.204,-0.427 0.174,-0.392C0.144,-0.357 0.129,-0.309 0.129,-0.247C0.129,-0.188 0.144,-0.141 0.174,-0.107C0.205,-0.073 0.245,-0.056 0.296,-0.056C0.348,-0.056 0.387,-0.072 0.415,-0.106C0.443,-0.139 0.457,-0.187 0.457,-0.249C0.457,-0.312 0.443,-0.36 0.415,-0.394C0.387,-0.427 0.348,-0.444 0.296,-0.444Z" style="fill:rgb(31,144,244);fill-rule:nonzero;"/>
        </g>
        <g transform="matrix(67,0,0,67,316.158,819.872)">
            <path d="M0.29,0.012C0.216,0.012 0.157,-0.012 0.113,-0.058C0.069,-0.105 0.047,-0.167 0.047,-0.244C0.047,-0.328 0.07,-0.394 0.116,-0.441C0.162,-0.488 0.224,-0.512 0.302,-0.512C0.376,-0.512 0.434,-0.489 0.476,-0.443C0.518,-0.397 0.539,-0.333 0.539,-0.252C0.539,-0.172 0.517,-0.108 0.471,-0.06C0.426,-0.012 0.366,0.012 0.29,0.012ZM0.296,-0.444C0.244,-0.444 0.204,-0.427 0.174,-0.392C0.144,-0.357 0.129,-0.309 0.129,-0.247C0.129,-0.188 0.144,-0.141 0.174,-0.107C0.205,-0.073 0.245,-0.056 0.296,-0.056C0.348,-0.056 0.387,-0.072 0.415,-0.106C0.443,-0.139 0.457,-0.187 0.457,-0.249C0.457,-0.312 0.443,-0.36 0.415,-0.394C0.387,-0.427 0.348,-0.444 0.296,-0.444Z" style="fill:rgb(31,144,244);fill-rule:nonzero;"/>
        </g>
        <g transform="matrix(67,0,0,67,355.416,819.872)">
            <rect x="0.081" y="-0.74" width="0.08" height="0.74" style="fill:rgb(31,144,244);fill-rule:nonzero;"/>
        </g>
        <g transform="matrix(67,0,0,67,371.642,819.872)">
            <path d="M0.496,0L0.384,0L0.163,-0.24L0.161,-0.24L0.161,0L0.081,0L0.081,-0.74L0.161,-0.74L0.161,-0.271L0.163,-0.271L0.373,-0.5L0.478,-0.5L0.246,-0.259L0.496,0Z" style="fill:rgb(31,144,244);fill-rule:nonzero;"/>
        </g>
        <g transform="matrix(67,0,0,67,404.946,819.872)">
            <path d="M0.122,-0.627C0.108,-0.627 0.096,-0.632 0.085,-0.642C0.075,-0.651 0.07,-0.664 0.07,-0.679C0.07,-0.694 0.075,-0.706 0.085,-0.716C0.096,-0.726 0.108,-0.731 0.122,-0.731C0.137,-0.731 0.149,-0.726 0.159,-0.716C0.17,-0.706 0.175,-0.694 0.175,-0.679C0.175,-0.664 0.17,-0.652 0.159,-0.642C0.149,-0.632 0.137,-0.627 0.122,-0.627ZM0.161,0L0.081,0L0.081,-0.5L0.161,-0.5L0.161,0Z" style="fill:rgb(31,144,244);fill-rule:nonzero;"/>
        </g>
        <g transform="matrix(67,0,0,67,421.173,819.872)">
            <path d="M0.313,-0.005C0.294,0.006 0.269,0.011 0.238,0.011C0.151,0.011 0.107,-0.038 0.107,-0.136L0.107,-0.432L0.021,-0.432L0.021,-0.5L0.107,-0.5L0.107,-0.622L0.187,-0.648L0.187,-0.5L0.313,-0.5L0.313,-0.432L0.187,-0.432L0.187,-0.15C0.187,-0.116 0.193,-0.092 0.204,-0.078C0.215,-0.064 0.234,-0.057 0.261,-0.057C0.281,-0.057 0.298,-0.062 0.313,-0.073L0.313,-0.005Z" style="fill:rgb(31,144,244);fill-rule:nonzero;"/>
        </g>
        <g transform="matrix(67,0,0,67,171.1,888.737)">
            <path d="M0.328,-0.67C0.313,-0.679 0.295,-0.683 0.275,-0.683C0.219,-0.683 0.191,-0.648 0.191,-0.577L0.191,-0.5L0.308,-0.5L0.308,-0.432L0.191,-0.432L0.191,0L0.111,0L0.111,-0.432L0.026,-0.432L0.026,-0.5L0.111,-0.5L0.111,-0.581C0.111,-0.633 0.126,-0.675 0.157,-0.705C0.187,-0.736 0.225,-0.751 0.27,-0.751C0.294,-0.751 0.314,-0.748 0.328,-0.742L0.328,-0.67Z" style="fill:rgb(31,144,244);fill-rule:nonzero;"/>
        </g>
        <g transform="matrix(67,0,0,67,192.071,888.737)">
            <path d="M0.29,0.012C0.216,0.012 0.157,-0.012 0.113,-0.058C0.069,-0.105 0.047,-0.167 0.047,-0.244C0.047,-0.328 0.07,-0.394 0.116,-0.441C0.162,-0.488 0.224,-0.512 0.302,-0.512C0.376,-0.512 0.434,-0.489 0.476,-0.443C0.518,-0.397 0.539,-0.333 0.539,-0.252C0.539,-0.172 0.517,-0.108 0.471,-0.06C0.426,-0.012 0.366,0.012 0.29,0.012ZM0.296,-0.444C0.244,-0.444 0.204,-0.427 0.174,-0.392C0.144,-0.357 0.129,-0.309 0.129,-0.247C0.129,-0.188 0.144,-0.141 0.174,-0.107C0.205,-0.073 0.245,-0.056 0.296,-0.056C0.348,-0.056 0.387,-0.072 0.415,-0.106C0.443,-0.139 0.457,-0.187 0.457,-0.249C0.457,-0.312 0.443,-0.36 0.415,-0.394C0.387,-0.427 0.348,-0.444 0.296,-0.444Z" style="fill:rgb(31,144,244);fill-rule:nonzero;"/>
        </g>
        <g transform="matrix(67,0,0,67,231.328,888.737)">
            <path d="M0.342,-0.419C0.328,-0.43 0.308,-0.435 0.281,-0.435C0.247,-0.435 0.219,-0.419 0.196,-0.387C0.173,-0.354 0.161,-0.311 0.161,-0.255L0.161,0L0.081,0L0.081,-0.5L0.161,-0.5L0.161,-0.397L0.163,-0.397C0.174,-0.432 0.192,-0.46 0.215,-0.479C0.239,-0.499 0.265,-0.509 0.294,-0.509C0.315,-0.509 0.331,-0.507 0.342,-0.502L0.342,-0.419Z" style="fill:rgb(31,144,244);fill-rule:nonzero;"/>
        </g>
        <g transform="matrix(67,0,0,67,272.974,888.737)">
            <path d="M0.604,-0.283C0.604,-0.087 0.515,0.012 0.338,0.012C0.168,0.012 0.083,-0.083 0.083,-0.272L0.083,-0.7L0.165,-0.7L0.165,-0.277C0.165,-0.134 0.226,-0.062 0.347,-0.062C0.464,-0.062 0.522,-0.131 0.522,-0.27L0.522,-0.7L0.604,-0.7L0.604,-0.283Z" style="fill:rgb(31,144,244);fill-rule:nonzero;"/>
        </g>
        <g transform="matrix(67,0,0,67,319.004,888.737)">
            <path d="M0.496,0L0.416,0L0.416,-0.285C0.416,-0.391 0.377,-0.444 0.3,-0.444C0.26,-0.444 0.227,-0.429 0.2,-0.399C0.174,-0.369 0.161,-0.331 0.161,-0.285L0.161,0L0.081,0L0.081,-0.5L0.161,-0.5L0.161,-0.417L0.163,-0.417C0.201,-0.48 0.256,-0.512 0.327,-0.512C0.382,-0.512 0.424,-0.494 0.453,-0.459C0.482,-0.423 0.496,-0.372 0.496,-0.306L0.496,0Z" style="fill:rgb(31,144,244);fill-rule:nonzero;"/>
        </g>
        <g transform="matrix(67,0,0,67,356.921,888.737)">
            <path d="M0.122,-0.627C0.108,-0.627 0.096,-0.632 0.085,-0.642C0.075,-0.651 0.07,-0.664 0.07,-0.679C0.07,-0.694 0.075,-0.706 0.085,-0.716C0.096,-0.726 0.108,-0.731 0.122,-0.731C0.137,-0.731 0.149,-0.726 0.159,-0.716C0.17,-0.706 0.175,-0.694 0.175,-0.679C0.175,-0.664 0.17,-0.652 0.159,-0.642C0.149,-0.632 0.137,-0.627 0.122,-0.627ZM0.161,0L0.081,0L0.081,-0.5L0.161,-0.5L0.161,0Z" style="fill:rgb(31,144,244);fill-rule:nonzero;"/>
        </g>
        <g transform="matrix(67,0,0,67,373.147,888.737)">
            <path d="M0.313,-0.005C0.294,0.006 0.269,0.011 0.238,0.011C0.151,0.011 0.107,-0.038 0.107,-0.136L0.107,-0.432L0.021,-0.432L0.021,-0.5L0.107,-0.5L0.107,-0.622L0.187,-0.648L0.187,-0.5L0.313,-0.5L0.313,-0.432L0.187,-0.432L0.187,-0.15C0.187,-0.116 0.193,-0.092 0.204,-0.078C0.215,-0.064 0.234,-0.057 0.261,-0.057C0.281,-0.057 0.298,-0.062 0.313,-0.073L0.313,-0.005Z" style="fill:rgb(31,144,244);fill-rule:nonzero;"/>
        </g>
        <g transform="matrix(67,0,0,67,395.851,888.737)">
            <path d="M0.479,-0.5L0.249,0.08C0.208,0.184 0.15,0.235 0.076,0.235C0.055,0.235 0.038,0.233 0.024,0.229L0.024,0.157C0.041,0.163 0.057,0.166 0.071,0.166C0.112,0.166 0.142,0.142 0.162,0.094L0.202,-0.001L0.007,-0.5L0.096,-0.5L0.231,-0.115C0.233,-0.11 0.236,-0.098 0.241,-0.077L0.244,-0.077C0.246,-0.085 0.249,-0.097 0.254,-0.114L0.396,-0.5L0.479,-0.5Z" style="fill:rgb(31,144,244);fill-rule:nonzero;"/>
        </g>
    </g>
</svg>
