<?xml version="1.0" encoding="UTF-8" standalone="no"?>
<!DOCTYPE svg PUBLIC "-//W3C//DTD SVG 1.1//EN" "http://www.w3.org/Graphics/SVG/1.1/DTD/svg11.dtd">
<svg width="100%" height="100%" viewBox="0 0 1024 1024" version="1.1" xmlns="http://www.w3.org/2000/svg" xmlns:xlink="http://www.w3.org/1999/xlink" xml:space="preserve" xmlns:serif="http://www.serif.com/" style="fill-rule:evenodd;clip-rule:evenodd;stroke-linejoin:round;stroke-miterlimit:2;">
    <g transform="matrix(2.79927,0,0,2.79927,-198.768,-157.345)">
        <g transform="matrix(0.998123,0,0,0.998123,0.32116,0.583706)">
            <rect x="171.1" y="310.973" width="100.188" height="100.188" style="fill:rgb(31,144,244);"/>
        </g>
        <g transform="matrix(0.35289,-0.35289,1.82658e-16,0.998123,210.721,60.9633)">
            <rect x="171.1" y="310.973" width="100.188" height="100.188" style="fill:rgb(9,110,200);"/>
        </g>
        <g transform="matrix(0.35289,-0.35289,0.998123,-1.9173e-16,-199.669,371.353)">
            <rect x="171.1" y="310.973" width="100.188" height="100.188" style="fill:rgb(65,161,246);"/>
        </g>
    </g>
    <g transform="matrix(1.60375,0,0,1.60375,-387.113,-211.915)">
        <rect x="464.044" y="209.628" width="163.765" height="85.225" style="fill:rgb(31,144,244);"/>
        <g transform="matrix(0.924751,0,0,0.994456,43.0761,8.07563)">
            <ellipse cx="500.237" cy="189.391" rx="48.662" ry="45.251" style="fill:rgb(31,144,244);"/>
        </g>
        <g transform="matrix(0.924751,0,0,0.994456,106.291,24.9026)">
            <ellipse cx="500.237" cy="189.391" rx="48.662" ry="45.251" style="fill:rgb(31,144,244);"/>
        </g>
        <g transform="matrix(0.985499,0,0,1.05978,134.827,46.1842)">
            <ellipse cx="500.237" cy="189.391" rx="48.662" ry="45.251" style="fill:rgb(31,144,244);"/>
        </g>
        <g transform="matrix(0.985499,0,0,1.05978,-28.9387,46.1842)">
            <ellipse cx="500.237" cy="189.391" rx="48.662" ry="45.251" style="fill:rgb(31,144,244);"/>
        </g>
    </g>
    <g transform="matrix(3.43389e-17,0.560797,-1.17809,7.21373e-17,997.443,444.865)">
        <path d="M-264.562,448.775L-264.562,415.379L138.323,415.379L138.323,384.368L238.547,432.077L138.323,479.786L138.323,448.775L-264.562,448.775Z" style="fill:rgb(31,144,244);"/>
    </g>
    <g transform="matrix(1.55201,0,0,1.55201,14.6381,-468.566)">
        <g transform="matrix(67,0,0,67,200.515,876.39)">
            <path d="M0.109,0.011C0.094,0.011 0.081,0.005 0.071,-0.005C0.06,-0.016 0.055,-0.029 0.055,-0.044C0.055,-0.059 0.06,-0.072 0.071,-0.083C0.081,-0.094 0.094,-0.099 0.109,-0.099C0.124,-0.099 0.137,-0.094 0.148,-0.083C0.159,-0.072 0.164,-0.059 0.164,-0.044C0.164,-0.029 0.159,-0.016 0.148,-0.005C0.137,0.005 0.124,0.011 0.109,0.011Z" style="fill:white;fill-rule:nonzero;"/>
        </g>
        <g transform="matrix(67,0,0,67,215.04,876.39)">
            <path d="M0.29,0.012C0.216,0.012 0.157,-0.012 0.113,-0.058C0.069,-0.105 0.047,-0.167 0.047,-0.244C0.047,-0.328 0.07,-0.394 0.116,-0.441C0.162,-0.488 0.224,-0.512 0.302,-0.512C0.376,-0.512 0.434,-0.489 0.476,-0.443C0.518,-0.397 0.539,-0.333 0.539,-0.252C0.539,-0.172 0.517,-0.108 0.471,-0.06C0.426,-0.012 0.366,0.012 0.29,0.012ZM0.296,-0.444C0.244,-0.444 0.204,-0.427 0.174,-0.392C0.144,-0.357 0.129,-0.309 0.129,-0.247C0.129,-0.188 0.144,-0.141 0.174,-0.107C0.205,-0.073 0.245,-0.056 0.296,-0.056C0.348,-0.056 0.387,-0.072 0.415,-0.106C0.443,-0.139 0.457,-0.187 0.457,-0.249C0.457,-0.312 0.443,-0.36 0.415,-0.394C0.387,-0.427 0.348,-0.444 0.296,-0.444Z" style="fill:white;fill-rule:nonzero;"/>
        </g>
        <g transform="matrix(67,0,0,67,254.298,876.39)">
            <path d="M0.163,-0.072L0.161,-0.072L0.161,0L0.081,0L0.081,-0.74L0.161,-0.74L0.161,-0.412L0.163,-0.412C0.202,-0.479 0.26,-0.512 0.336,-0.512C0.4,-0.512 0.45,-0.489 0.487,-0.445C0.523,-0.4 0.541,-0.34 0.541,-0.265C0.541,-0.181 0.521,-0.114 0.48,-0.064C0.439,-0.013 0.384,0.012 0.313,0.012C0.247,0.012 0.197,-0.016 0.163,-0.072ZM0.161,-0.274L0.161,-0.204C0.161,-0.163 0.175,-0.128 0.201,-0.099C0.228,-0.07 0.262,-0.056 0.304,-0.056C0.352,-0.056 0.39,-0.074 0.418,-0.111C0.445,-0.148 0.459,-0.2 0.459,-0.266C0.459,-0.322 0.446,-0.365 0.42,-0.397C0.395,-0.429 0.36,-0.444 0.316,-0.444C0.269,-0.444 0.232,-0.428 0.204,-0.396C0.175,-0.363 0.161,-0.323 0.161,-0.274Z" style="fill:white;fill-rule:nonzero;"/>
        </g>
        <g transform="matrix(67,0,0,67,293.687,876.39)">
            <path d="M0.161,-0.021C0.161,0.061 0.145,0.124 0.112,0.169C0.079,0.213 0.031,0.235 -0.03,0.235C-0.053,0.235 -0.075,0.23 -0.097,0.22L-0.097,0.145C-0.073,0.16 -0.05,0.167 -0.028,0.167C0.045,0.167 0.081,0.109 0.081,-0.008L0.081,-0.5L0.161,-0.5L0.161,-0.021ZM0.122,-0.627C0.108,-0.627 0.096,-0.632 0.085,-0.642C0.075,-0.651 0.07,-0.664 0.07,-0.679C0.07,-0.694 0.075,-0.706 0.085,-0.716C0.096,-0.726 0.108,-0.731 0.122,-0.731C0.137,-0.731 0.149,-0.726 0.159,-0.716C0.17,-0.706 0.175,-0.694 0.175,-0.679C0.175,-0.664 0.17,-0.652 0.159,-0.642C0.149,-0.632 0.137,-0.627 0.122,-0.627Z" style="fill:white;fill-rule:nonzero;"/>
        </g>
    </g>
</svg>
