<?xml version="1.0" encoding="UTF-8" standalone="no"?>
<!DOCTYPE svg PUBLIC "-//W3C//DTD SVG 1.1//EN" "http://www.w3.org/Graphics/SVG/1.1/DTD/svg11.dtd">
<svg width="100%" height="100%" viewBox="0 0 1024 1024" version="1.1" xmlns="http://www.w3.org/2000/svg" xmlns:xlink="http://www.w3.org/1999/xlink" xml:space="preserve" xmlns:serif="http://www.serif.com/" style="fill-rule:evenodd;clip-rule:evenodd;stroke-linejoin:round;stroke-miterlimit:2;">
    <g transform="matrix(1.25531,0,0,1.25531,-6.17587,-114.399)">
        <g transform="matrix(0.998123,0,0,0.998123,0.32116,0.583706)">
            <rect x="171.1" y="310.973" width="100.188" height="100.188" style="fill:rgb(31,144,244);"/>
        </g>
        <g transform="matrix(0.35289,-0.35289,1.82658e-16,0.998123,210.721,60.9633)">
            <rect x="171.1" y="310.973" width="100.188" height="100.188" style="fill:rgb(9,110,200);"/>
        </g>
        <g transform="matrix(0.35289,-0.35289,0.998123,-1.9173e-16,-199.669,371.353)">
            <rect x="171.1" y="310.973" width="100.188" height="100.188" style="fill:rgb(65,161,246);"/>
        </g>
    </g>
    <g transform="matrix(1.25531,0,0,1.25531,212.259,-199.356)">
        <g transform="matrix(0.998123,0,0,0.998123,0.32116,0.583706)">
            <rect x="171.1" y="310.973" width="100.188" height="100.188" style="fill:rgb(31,144,244);"/>
        </g>
        <g transform="matrix(0.35289,-0.35289,1.82658e-16,0.998123,210.721,60.9633)">
            <rect x="171.1" y="310.973" width="100.188" height="100.188" style="fill:rgb(9,110,200);"/>
        </g>
        <g transform="matrix(0.35289,-0.35289,0.998123,-1.9173e-16,-199.669,371.353)">
            <rect x="171.1" y="310.973" width="100.188" height="100.188" style="fill:rgb(65,161,246);"/>
        </g>
    </g>
    <g transform="matrix(1.25531,0,0,1.25531,422.529,-114.399)">
        <g transform="matrix(0.998123,0,0,0.998123,0.32116,0.583706)">
            <rect x="171.1" y="310.973" width="100.188" height="100.188" style="fill:rgb(31,144,244);"/>
        </g>
        <g transform="matrix(0.35289,-0.35289,1.82658e-16,0.998123,210.721,60.9633)">
            <rect x="171.1" y="310.973" width="100.188" height="100.188" style="fill:rgb(9,110,200);"/>
        </g>
        <g transform="matrix(0.35289,-0.35289,0.998123,-1.9173e-16,-199.669,371.353)">
            <rect x="171.1" y="310.973" width="100.188" height="100.188" style="fill:rgb(65,161,246);"/>
        </g>
    </g>
    <g transform="matrix(1.25531,0,0,1.25531,507.486,81.0563)">
        <g transform="matrix(0.998123,0,0,0.998123,0.32116,0.583706)">
            <rect x="171.1" y="310.973" width="100.188" height="100.188" style="fill:rgb(31,144,244);"/>
        </g>
        <g transform="matrix(0.35289,-0.35289,1.82658e-16,0.998123,210.721,60.9633)">
            <rect x="171.1" y="310.973" width="100.188" height="100.188" style="fill:rgb(9,110,200);"/>
        </g>
        <g transform="matrix(0.35289,-0.35289,0.998123,-1.9173e-16,-199.669,371.353)">
            <rect x="171.1" y="310.973" width="100.188" height="100.188" style="fill:rgb(65,161,246);"/>
        </g>
    </g>
    <g transform="matrix(1.25531,0,0,1.25531,422.529,276.511)">
        <g transform="matrix(0.998123,0,0,0.998123,0.32116,0.583706)">
            <rect x="171.1" y="310.973" width="100.188" height="100.188" style="fill:rgb(31,144,244);"/>
        </g>
        <g transform="matrix(0.35289,-0.35289,1.82658e-16,0.998123,210.721,60.9633)">
            <rect x="171.1" y="310.973" width="100.188" height="100.188" style="fill:rgb(9,110,200);"/>
        </g>
        <g transform="matrix(0.35289,-0.35289,0.998123,-1.9173e-16,-199.669,371.353)">
            <rect x="171.1" y="310.973" width="100.188" height="100.188" style="fill:rgb(65,161,246);"/>
        </g>
    </g>
    <g transform="matrix(1.25531,0,0,1.25531,212.259,361.468)">
        <g transform="matrix(0.998123,0,0,0.998123,0.32116,0.583706)">
            <rect x="171.1" y="310.973" width="100.188" height="100.188" style="fill:rgb(31,144,244);"/>
        </g>
        <g transform="matrix(0.35289,-0.35289,1.82658e-16,0.998123,210.721,60.9633)">
            <rect x="171.1" y="310.973" width="100.188" height="100.188" style="fill:rgb(9,110,200);"/>
        </g>
        <g transform="matrix(0.35289,-0.35289,0.998123,-1.9173e-16,-199.669,371.353)">
            <rect x="171.1" y="310.973" width="100.188" height="100.188" style="fill:rgb(65,161,246);"/>
        </g>
    </g>
    <g transform="matrix(1.25531,0,0,1.25531,1.98846,276.511)">
        <g transform="matrix(0.998123,0,0,0.998123,0.32116,0.583706)">
            <rect x="171.1" y="310.973" width="100.188" height="100.188" style="fill:rgb(31,144,244);"/>
        </g>
        <g transform="matrix(0.35289,-0.35289,1.82658e-16,0.998123,210.721,60.9633)">
            <rect x="171.1" y="310.973" width="100.188" height="100.188" style="fill:rgb(9,110,200);"/>
        </g>
        <g transform="matrix(0.35289,-0.35289,0.998123,-1.9173e-16,-199.669,371.353)">
            <rect x="171.1" y="310.973" width="100.188" height="100.188" style="fill:rgb(65,161,246);"/>
        </g>
    </g>
    <g transform="matrix(1.25531,0,0,1.25531,-91.1326,81.0563)">
        <g transform="matrix(0.998123,0,0,0.998123,0.32116,0.583706)">
            <rect x="171.1" y="310.973" width="100.188" height="100.188" style="fill:rgb(31,144,244);"/>
        </g>
        <g transform="matrix(0.35289,-0.35289,1.82658e-16,0.998123,210.721,60.9633)">
            <rect x="171.1" y="310.973" width="100.188" height="100.188" style="fill:rgb(9,110,200);"/>
        </g>
        <g transform="matrix(0.35289,-0.35289,0.998123,-1.9173e-16,-199.669,371.353)">
            <rect x="171.1" y="310.973" width="100.188" height="100.188" style="fill:rgb(65,161,246);"/>
        </g>
    </g>
    <g transform="matrix(1.25531,0,0,1.25531,212.259,81.0563)">
        <g transform="matrix(0.998123,0,0,0.998123,0.32116,0.583706)">
            <rect x="171.1" y="310.973" width="100.188" height="100.188" style="fill:rgb(31,144,244);"/>
        </g>
        <g transform="matrix(0.35289,-0.35289,1.82658e-16,0.998123,210.721,60.9633)">
            <rect x="171.1" y="310.973" width="100.188" height="100.188" style="fill:rgb(9,110,200);"/>
        </g>
        <g transform="matrix(0.35289,-0.35289,0.998123,-1.9173e-16,-199.669,371.353)">
            <rect x="171.1" y="310.973" width="100.188" height="100.188" style="fill:rgb(65,161,246);"/>
        </g>
    </g>
    <g transform="matrix(0.92122,0,0,0.92122,40.3355,40.3355)">
        <path d="M512,0C794.58,0 1024,229.42 1024,512C1024,794.58 794.58,1024 512,1024C229.42,1024 0,794.58 0,512C0,229.42 229.42,0 512,0ZM512,14.559C786.545,14.559 1009.44,237.455 1009.44,512C1009.44,786.545 786.545,1009.44 512,1009.44C237.455,1009.44 14.559,786.545 14.559,512C14.559,237.455 237.455,14.559 512,14.559Z" style="fill:rgb(31,144,244);"/>
    </g>
</svg>
