<?xml version="1.0" encoding="UTF-8" standalone="no"?>
<!DOCTYPE svg PUBLIC "-//W3C//DTD SVG 1.1//EN" "http://www.w3.org/Graphics/SVG/1.1/DTD/svg11.dtd">
<svg width="100%" height="100%" viewBox="0 0 1024 1024" version="1.1" xmlns="http://www.w3.org/2000/svg" xmlns:xlink="http://www.w3.org/1999/xlink" xml:space="preserve" xmlns:serif="http://www.serif.com/" style="fill-rule:evenodd;clip-rule:evenodd;stroke-linecap:round;stroke-linejoin:round;stroke-miterlimit:1.5;">
    <g transform="matrix(1.40041,0,0,1.40041,418.712,-305.361)">
        <g transform="matrix(0.998123,0,0,0.998123,0.32116,0.583706)">
            <rect x="171.1" y="310.973" width="100.188" height="100.188" style="fill:rgb(31,144,244);"/>
        </g>
        <g transform="matrix(0.35289,-0.35289,1.82658e-16,0.998123,210.721,60.9633)">
            <rect x="171.1" y="310.973" width="100.188" height="100.188" style="fill:rgb(9,110,200);"/>
        </g>
        <g transform="matrix(0.35289,-0.35289,0.998123,-1.9173e-16,-199.669,371.353)">
            <rect x="171.1" y="310.973" width="100.188" height="100.188" style="fill:rgb(65,161,246);"/>
        </g>
    </g>
    <g transform="matrix(1.40041,0,0,1.40041,418.712,-91.9734)">
        <g transform="matrix(0.998123,0,0,0.998123,0.32116,0.583706)">
            <rect x="171.1" y="310.973" width="100.188" height="100.188" style="fill:rgb(31,144,244);"/>
        </g>
        <g transform="matrix(0.35289,-0.35289,1.82658e-16,0.998123,210.721,60.9633)">
            <rect x="171.1" y="310.973" width="100.188" height="100.188" style="fill:rgb(9,110,200);"/>
        </g>
        <g transform="matrix(0.35289,-0.35289,0.998123,-1.9173e-16,-199.669,371.353)">
            <rect x="171.1" y="310.973" width="100.188" height="100.188" style="fill:rgb(65,161,246);"/>
        </g>
    </g>
    <g transform="matrix(1.40041,0,0,1.40041,418.712,121.414)">
        <g transform="matrix(0.998123,0,0,0.998123,0.32116,0.583706)">
            <rect x="171.1" y="310.973" width="100.188" height="100.188" style="fill:rgb(31,144,244);"/>
        </g>
        <g transform="matrix(0.35289,-0.35289,1.82658e-16,0.998123,210.721,60.9633)">
            <rect x="171.1" y="310.973" width="100.188" height="100.188" style="fill:rgb(9,110,200);"/>
        </g>
        <g transform="matrix(0.35289,-0.35289,0.998123,-1.9173e-16,-199.669,371.353)">
            <rect x="171.1" y="310.973" width="100.188" height="100.188" style="fill:rgb(65,161,246);"/>
        </g>
    </g>
    <g transform="matrix(1.40041,0,0,1.40041,418.712,334.802)">
        <g transform="matrix(0.998123,0,0,0.998123,0.32116,0.583706)">
            <rect x="171.1" y="310.973" width="100.188" height="100.188" style="fill:rgb(31,144,244);"/>
        </g>
        <g transform="matrix(0.35289,-0.35289,1.82658e-16,0.998123,210.721,60.9633)">
            <rect x="171.1" y="310.973" width="100.188" height="100.188" style="fill:rgb(9,110,200);"/>
        </g>
        <g transform="matrix(0.35289,-0.35289,0.998123,-1.9173e-16,-199.669,371.353)">
            <rect x="171.1" y="310.973" width="100.188" height="100.188" style="fill:rgb(65,161,246);"/>
        </g>
    </g>
    <g transform="matrix(1.15644,0,0,1.15644,-66.7519,-61.6644)">
        <path d="M326.872,355.872C317.812,354.992 308.688,354.992 299.628,355.872L295.141,377.717C286.457,379.046 277.946,381.326 269.761,384.518L254.953,367.843C246.667,371.611 238.765,376.173 231.359,381.465L238.395,402.627C231.539,408.119 225.309,414.35 219.816,421.206L198.655,414.17C193.362,421.576 188.8,429.477 185.032,437.764L201.707,452.572C198.516,460.757 196.235,469.268 194.906,477.952L173.062,482.439C172.181,491.499 172.181,500.623 173.062,509.683L194.906,514.17C196.235,522.854 198.516,531.365 201.707,539.55L185.032,554.358C188.8,562.645 193.362,570.546 198.655,577.952L219.816,570.916C225.309,577.772 231.539,584.003 238.395,589.495L231.359,610.657C238.765,615.949 246.667,620.511 254.953,624.279L269.761,607.604C277.946,610.796 286.457,613.076 295.141,614.405L299.628,636.25C308.688,637.13 317.812,637.13 326.872,636.25L331.359,614.405C340.043,613.076 348.554,610.796 356.739,607.604L371.547,624.279C379.834,620.511 387.736,615.949 395.142,610.657L388.105,589.495C394.961,584.003 401.192,577.772 406.685,570.916L427.846,577.952C433.139,570.546 437.701,562.645 441.468,554.358L424.794,539.55C427.985,531.365 430.265,522.854 431.594,514.17L453.439,509.683C454.319,500.623 454.319,491.499 453.439,482.439L431.594,477.952C430.265,469.268 427.985,460.757 424.794,452.572L441.468,437.764C437.701,429.477 433.139,421.576 427.846,414.17L406.685,421.206C401.192,414.35 394.961,408.119 388.105,402.627L395.142,381.465C387.736,376.173 379.834,371.611 371.547,367.843L356.739,384.518C348.554,381.326 340.043,379.046 331.359,377.717L326.872,355.872ZM313.25,420.363C355.029,420.363 388.949,454.282 388.949,496.061C388.949,537.84 355.029,571.759 313.25,571.759C271.471,571.759 237.552,537.84 237.552,496.061C237.552,454.282 271.471,420.363 313.25,420.363Z" style="fill:rgb(31,144,244);"/>
    </g>
    <path d="M486.29,512L558.354,512" style="fill:none;stroke:rgb(31,144,244);stroke-width:5.95px;"/>
    <g transform="matrix(1,0,0,1,72.064,-317.77)">
        <path d="M486.29,512L558.354,512" style="fill:none;stroke:rgb(31,144,244);stroke-width:5.95px;"/>
    </g>
    <g transform="matrix(1,0,0,1,72.064,-105.923)">
        <path d="M486.29,512L558.354,512" style="fill:none;stroke:rgb(31,144,244);stroke-width:5.95px;"/>
    </g>
    <g transform="matrix(1,0,0,1,72.064,105.923)">
        <path d="M486.29,512L558.354,512" style="fill:none;stroke:rgb(31,144,244);stroke-width:5.95px;"/>
    </g>
    <g transform="matrix(1,0,0,1,72.064,317.77)">
        <path d="M486.29,512L558.354,512" style="fill:none;stroke:rgb(31,144,244);stroke-width:5.95px;"/>
    </g>
    <g transform="matrix(1,0,0,0.99278,0,20.1027)">
        <path d="M558.354,175.393L558.354,815.556" style="fill:none;stroke:rgb(31,144,244);stroke-width:5.98px;"/>
    </g>
</svg>
