# Blender v2.82 (sub 7) OBJ File: ''
# www.blender.org
mtllib Pyramid_smooth.mtl
o Cube_Cube.001
v -1.000000 -1.000000 1.000000
v 0.000000 1.000000 0.000000
v -1.000000 -1.000000 -1.000000
v 1.000000 -1.000000 1.000000
v 1.000000 -1.000000 -1.000000
vt 0.375000 0.000000
vt 0.625000 0.250000
vt 0.375000 0.250000
vt 0.625000 0.500000
vt 0.375000 0.500000
vt 0.625000 0.750000
vt 0.375000 0.750000
vt 0.625000 1.000000
vt 0.375000 1.000000
vt 0.125000 0.500000
vt 0.125000 0.750000
vn -0.6626 -0.3490 0.6626
vn 0.0000 1.0000 0.0000
vn -0.6626 -0.3490 -0.6626
vn 0.6626 -0.3490 -0.6626
vn 0.6626 -0.3490 0.6626
usemtl None
s 1
f 1/1/1 2/2/2 3/3/3
f 3/3/3 2/4/2 5/5/4
f 5/5/4 2/6/2 4/7/5
f 4/7/5 2/8/2 1/9/1
f 3/10/3 5/5/4 4/7/5 1/11/1
